<svg width="53" height="44" viewBox="0 0 63 54" fill="none" xmlns="http://www.w3.org/2000/svg">
<g filter="url(#filter0_d_47_27)">
<path d="M22.05 27C29.0095 27 34.65 20.9556 34.65 13.5C34.65 6.04441 29.0095 0 22.05 0C15.0905 0 9.45 6.04441 9.45 13.5C9.45 20.9556 15.0905 27 22.05 27ZM27.0408 32.0625H17.0592C7.63973 32.0625 0 40.2469 0 50.3402C0 52.3652 1.52775 54 3.41184 54H40.6901C42.5742 54 44.1 52.3652 44.1 50.3402C44.1 40.2469 36.4613 32.0625 27.0408 32.0625ZM60.6375 21.0938H55.9125V16.0312C55.9125 14.6391 54.8592 13.5 53.55 13.5C52.2408 13.5 51.1875 14.6338 51.1875 16.0312V21.0938H46.4625C45.1631 21.0938 44.1 22.2328 44.1 23.625C44.1 25.0172 45.1582 26.1562 46.4625 26.1562H51.1875V31.2188C51.1875 32.6215 52.2506 33.75 53.55 33.75C54.8494 33.75 55.9125 32.6162 55.9125 31.2188V26.1562H60.6375C61.9467 26.1562 63 25.0277 63 23.625C63 22.2223 61.9467 21.0938 60.6375 21.0938Z" fill="#A26825"/>
</g>
<defs>
<filter id="filter0_d_47_27" x="0" y="0" width="63" height="54" filterUnits="userSpaceOnUse" color-interpolation-filters="sRGB">
<feFlood flood-opacity="0" result="BackgroundImageFix"/>
<feColorMatrix in="SourceAlpha" type="matrix" values="0 0 0 0 0 0 0 0 0 0 0 0 0 0 0 0 0 0 127 0" result="hardAlpha"/>
<feOffset/>
<feComposite in2="hardAlpha" operator="out"/>
<feColorMatrix type="matrix" values="0 0 0 0 0 0 0 0 0 0 0 0 0 0 0 0 0 0 0.25 0"/>
<feBlend mode="normal" in2="BackgroundImageFix" result="effect1_dropShadow_47_27"/>
<feBlend mode="normal" in="SourceGraphic" in2="effect1_dropShadow_47_27" result="shape"/>
</filter>
</defs>
</svg>
