<svg width="55" height="55" viewBox="0 0 55 55" fill="none" xmlns="http://www.w3.org/2000/svg">
<path d="M0 27.5C0 12.3105 12.3105 0 27.5 0C42.6895 0 55 12.3105 55 27.5C55 42.6895 42.6895 55 27.5 55C12.3105 55 0 42.6895 0 27.5ZM27.5 39.5312C28.9287 39.5312 30.0781 38.3818 30.0781 36.9531V30.0781H36.9531C38.3818 30.0781 39.5312 28.9287 39.5312 27.5C39.5312 26.0713 38.3818 24.9219 36.9531 24.9219H30.0781V18.0469C30.0781 16.6182 28.9287 15.4688 27.5 15.4688C26.0713 15.4688 24.9219 16.6182 24.9219 18.0469V24.9219H18.0469C16.6182 24.9219 15.4688 26.0713 15.4688 27.5C15.4688 28.9287 16.6182 30.0781 18.0469 30.0781H24.9219V36.9531C24.9219 38.3818 26.0713 39.5312 27.5 39.5312Z" fill="#F27707"/>
</svg>
