<svg width="30" height="30" viewBox="0 0 45 45" fill="none" xmlns="http://www.w3.org/2000/svg">
<path d="M22.5 0C34.9277 0 45 10.0723 45 22.5C45 34.9277 34.9277 45 22.5 45C10.0723 45 0 34.9277 0 22.5C0 10.0723 10.0723 0 22.5 0ZM9.26367 24.4863L18.3252 33.5479C19.4238 34.6465 21.2036 34.6465 22.3022 33.5479C23.4009 32.4492 23.4009 30.6694 22.3022 29.5708L18.0352 25.3125H33.75C35.3057 25.3125 36.5625 24.0557 36.5625 22.5C36.5625 20.9443 35.3048 19.6875 33.75 19.6875H18.0352L22.3752 15.3475C23.4738 14.2488 23.4738 12.469 22.3752 11.3704C21.2766 10.2718 19.4968 10.2718 18.3981 11.3704L9.33662 20.4319C8.56055 21.208 8.4375 22.0693 8.4375 22.5C8.4375 22.9307 8.56055 23.792 9.26367 24.4863Z" fill="#A26825" fill-opacity="0.5"/>
</svg>
