<svg width="30" height="30" viewBox="0 0 45 45" fill="none" xmlns="http://www.w3.org/2000/svg">
<path d="M22.5 0C10.0723 0 0 10.0723 0 22.5C0 34.9277 10.0723 45 22.5 45C34.9277 45 45 34.9277 45 22.5C45 10.0723 34.9277 0 22.5 0ZM35.7363 24.4863L26.6748 33.5479C25.5762 34.6465 23.7964 34.6465 22.6978 33.5479C21.5991 32.4492 21.5991 30.6694 22.6978 29.5708L26.9648 25.3125H11.25C9.69434 25.3125 8.4375 24.0557 8.4375 22.5C8.4375 20.9443 9.69522 19.6875 11.25 19.6875H26.9648L22.6248 15.3475C21.5262 14.2488 21.5262 12.469 22.6248 11.3704C23.7234 10.2718 25.5032 10.2718 26.6019 11.3704L35.6634 20.4319C36.4395 21.208 36.5625 22.0693 36.5625 22.5C36.5625 22.9307 36.4395 23.792 35.7363 24.4863Z" fill="#A26825" fill-opacity="0.5"/>
</svg>
