<svg width="53" height="53" viewBox="0 0 63 63" fill="none" xmlns="http://www.w3.org/2000/svg">
<path d="M31.5 2.625C25.2343 2.625 19.2251 5.11406 14.7946 9.5446C10.3641 13.9751 7.875 19.9843 7.875 26.25C7.875 47.25 31.5 60.375 31.5 60.375C31.5 60.375 55.125 47.25 55.125 26.25C55.125 19.9843 52.6359 13.9751 48.2054 9.5446C43.7748 5.11406 37.7657 2.625 31.5 2.625V2.625ZM31.5 36.75C29.4233 36.75 27.3932 36.1342 25.6665 34.9804C23.9398 33.8267 22.594 32.1868 21.7993 30.2682C21.0045 28.3496 20.7966 26.2384 21.2018 24.2016C21.6069 22.1648 22.6069 20.2938 24.0754 18.8254C25.5438 17.3569 27.4148 16.3569 29.4516 15.9518C31.4884 15.5466 33.5996 15.7545 35.5182 16.5493C37.4368 17.344 39.0767 18.6898 40.2304 20.4165C41.3842 22.1432 42 24.1733 42 26.25C42 29.0348 40.8938 31.7055 38.9246 33.6746C36.9555 35.6438 34.2848 36.75 31.5 36.75Z" fill="#F27707"/>
</svg>
