<svg width="114" height="111" viewBox="0 0 114 111" fill="none" xmlns="http://www.w3.org/2000/svg">
<g clip-path="url(#clip0_23_12)">
<path d="M32.2768 31.8797C38.0768 27.0867 53.6744 29.3339 58.3692 35.015C60.5477 37.5202 59.8597 40.667 56.5683 43.3869C53.0023 46.3339 49.1214 46.4445 46.2641 48.8057C43.3777 51.191 42.5305 54.9876 39.0009 57.9043C35.7783 60.5675 32.4936 60.706 30.3813 58.1499C25.7509 52.4217 26.4746 36.6746 32.2768 31.8797ZM42.2703 22.0669C40.9309 18.9028 41.9158 15.3132 44.4678 14.0678C47.0198 12.8224 50.1706 14.3785 51.5085 17.5413C52.8527 20.7112 51.8678 24.3009 49.3158 25.5462C46.7638 26.7916 43.6136 25.2252 42.2703 22.0669ZM34.8207 25.6571C32.0727 26.9257 28.4579 24.858 26.6435 20.896C24.8291 16.934 25.7345 12.876 28.4371 11.5346C31.1851 10.266 34.7999 12.3336 36.6143 16.2956C38.3727 20.1928 37.5828 24.3861 34.8207 25.6571ZM12.4823 40.5026C14.2407 38.2969 17.8971 37.94 20.7521 39.8516C23.6077 41.7639 24.5467 45.1502 22.8428 47.4219C21.0843 49.6276 17.4374 49.9766 14.573 48.0729C11.7179 46.1553 10.8456 42.7187 12.4823 40.5026ZM25.6863 33.2056C23.9789 35.6189 19.6492 35.6656 16.1545 33.2032C12.6599 30.7408 11.2552 26.7351 13.0195 24.2754C14.7269 21.8621 19.0566 21.8154 22.5513 24.2778C26.0481 26.7384 27.4536 30.7459 25.6863 33.2056Z" fill="#A26825"/>
</g>
<g clip-path="url(#clip1_23_12)">
<path d="M78.5572 76.5366C81.7345 69.7162 96.7841 65.0423 103.465 68.1545C106.508 69.4804 107.239 72.6175 105.436 76.4879C103.483 80.6814 100.026 82.449 98.4609 85.8089C96.8796 89.2032 97.7462 92.9954 95.8127 97.1459C94.0472 100.935 91.1409 102.472 88.1351 101.072C81.4925 97.8895 75.3786 83.3596 78.5572 76.5366ZM83.3638 63.3814C80.7946 61.1001 80.1413 57.4356 81.9105 55.2143C83.6796 52.9931 87.1934 53.0441 89.7606 55.325C92.3366 57.6096 92.9899 61.2741 91.2208 63.4954C89.4516 65.7166 85.934 65.656 83.3638 63.3814ZM78.1801 69.8246C76.2439 72.151 72.0913 71.8375 68.7504 69.0398C65.4095 66.242 64.483 62.1887 66.3468 59.816C68.283 57.4896 72.4356 57.8031 75.7765 60.6009C79.0391 63.3642 80.1279 67.49 78.1801 69.8246ZM64.3893 92.8292C65.0292 90.0819 68.1774 88.1883 71.5768 88.6874C74.9771 89.187 77.2802 91.8412 76.7179 94.6246C76.078 97.3719 72.935 99.2543 69.5304 98.7664C66.1283 98.2618 63.8638 95.5336 64.3893 92.8292ZM73.176 80.5661C72.6715 83.4789 68.782 85.3817 64.5683 84.6601C60.3546 83.9385 57.3648 80.9252 57.9009 77.9459C58.4055 75.0331 62.2949 73.1303 66.5086 73.8519C70.7235 74.571 73.7148 77.5855 73.176 80.5661Z" fill="#A26825"/>
</g>
<defs>
<clipPath id="clip0_23_12">
<rect width="48.5371" height="48.6889" fill="white" transform="matrix(-0.770849 0.637017 0.637017 0.770849 37.4148 0)"/>
</clipPath>
<clipPath id="clip1_23_12">
<rect width="48.5371" height="48.6889" fill="white" transform="matrix(-0.422284 0.906463 0.906463 0.422284 69.4965 45.5427)"/>
</clipPath>
</defs>
</svg>
