<svg width="60" height="60" viewBox="0 0 60 60" fill="none" xmlns="http://www.w3.org/2000/svg">
<path d="M30.0003 0C13.4317 0 0 13.4327 0 29.9995C0 46.5686 13.4317 60 30.0003 60C46.5683 60 60 46.5685 60 29.9995C60 13.4327 46.5683 0 30.0003 0Z" fill="#A16825"/>
<path d="M19.2557 28.4388H27.1795C29.8055 28.4388 31.9342 30.5676 31.9342 33.1941V35.1756C31.9342 37.8014 29.8054 39.9302 27.1795 39.9302H22.5186L19.3425 43.0673C18.7348 43.6692 18.2371 43.4595 18.2371 42.6045V39.8197C16.1002 39.3523 14.4993 37.4516 14.4993 35.1757V33.1942C14.4993 30.5676 16.6287 28.4388 19.2557 28.4388Z" fill="#F5A760"/>
<path d="M38.342 16.5878H28.1341C24.1803 16.5878 20.9746 19.794 20.9746 23.7465V26.7292C20.9746 30.6823 24.1803 33.8874 28.1341 33.8874H33.429L38.2086 38.6107C39.126 39.517 39.8758 39.2026 39.8758 37.9138V33.7215C43.0925 33.0189 45.5001 30.1561 45.5001 26.7293V23.7466C45.5001 19.7939 42.2944 16.5878 38.342 16.5878Z" fill="white"/>
<path d="M24.9138 25.3215C24.9138 26.2908 25.6997 27.0771 26.6683 27.0771C27.6376 27.0771 28.4234 26.2908 28.4234 25.3215C28.4234 24.3523 27.6376 23.5671 26.6683 23.5671C25.6997 23.5671 24.9138 24.3524 24.9138 25.3215ZM31.168 25.3215C31.168 26.2908 31.9533 27.0771 32.9225 27.0771C33.8912 27.0771 34.6776 26.2908 34.6776 25.3215C34.6776 24.3523 33.8912 23.5671 32.9225 23.5671C31.9533 23.5671 31.168 24.3524 31.168 25.3215ZM37.4205 25.3215C37.4205 26.2908 38.2069 27.0771 39.1761 27.0771C40.1453 27.0771 40.9301 26.2908 40.9301 25.3215C40.9301 24.3523 40.1454 23.5671 39.1761 23.5671C38.2069 23.5671 37.4205 24.3524 37.4205 25.3215Z" fill="#EFEFF0"/>
</svg>
