<svg width="20" height="20" viewBox="0 0 31 31" fill="none" xmlns="http://www.w3.org/2000/svg">
<path d="M21.9604 1.16971C23.474 -0.343842 25.9322 -0.343842 27.4459 1.16971L29.8315 3.55707C31.3451 5.07014 31.3451 7.52592 29.8315 9.03959L26.901 11.9701L19.0299 4.10018L21.9604 1.16971ZM25.5326 13.3384L11.4131 27.4519C10.7834 28.0816 10.0023 28.5478 9.14864 28.796L1.86303 30.9394C1.35322 31.0908 0.801642 30.9515 0.425646 30.5216C0.0496379 30.2007 -0.0909399 29.6497 0.0590953 29.1351L2.20209 21.8513C2.45397 20.9976 2.91594 20.2165 3.54623 19.5869L17.6615 5.46975L25.5326 13.3384Z" fill="#A26825"/>
</svg>
