<svg width="63" height="63" viewBox="0 0 63 63" fill="none" xmlns="http://www.w3.org/2000/svg">
<path d="M31.5 62.0156C47.8097 62.0156 61.0312 48.794 61.0312 32.4844C61.0312 16.1747 47.8097 2.95312 31.5 2.95312C15.1903 2.95312 1.96875 16.1747 1.96875 32.4844C1.96875 48.794 15.1903 62.0156 31.5 62.0156Z" fill="#F5A760"/>
<path opacity="0.3" d="M31.5 55.125C44.5477 55.125 55.125 44.5477 55.125 31.5C55.125 18.4523 44.5477 7.875 31.5 7.875C18.4523 7.875 7.875 18.4523 7.875 31.5C7.875 44.5477 18.4523 55.125 31.5 55.125Z" fill="white"/>
<path d="M31.5 62.0156C36.217 62.018 40.8659 60.8889 45.0563 58.723C49.2467 56.5572 52.8565 53.4177 55.5827 49.5682C53.9965 45.2646 51.1289 41.5508 47.3667 38.9273C43.6044 36.3039 39.1283 34.8969 34.5417 34.8961H28.4583C23.8716 34.8969 19.3955 36.3039 15.6333 38.9273C11.871 41.5508 9.00348 45.2646 7.41724 49.5682C10.1434 53.4177 13.7532 56.5572 17.9436 58.723C22.1341 60.8889 26.7829 62.018 31.5 62.0156Z" fill="#A16825"/>
<path d="M12.9573 22.2774C13.6901 21.5445 14.6842 21.1327 15.7206 21.1327C16.7571 21.1327 17.7511 21.5445 18.484 22.2774L23.6557 27.4491L18.1255 32.9793L12.9573 27.811C12.2244 27.0781 11.8126 26.0841 11.8126 25.0477C11.8126 24.0112 12.2244 23.0172 12.9573 22.2843L12.9573 22.2774Z" fill="#B5874E"/>
<path d="M21.6119 29.4968L17.0395 24.9244C16.3598 24.2446 15.4535 23.8392 14.4937 23.7856C13.534 23.732 12.5882 24.0341 11.8371 24.634C11.7732 25.2135 11.8409 25.7999 12.0352 26.3496C12.2295 26.8993 12.5454 27.398 12.9593 27.8086L18.1272 32.9766L21.6119 29.4968Z" fill="#D9AA11"/>
<path d="M44.873 32.9778L39.3429 27.4476L44.5111 22.2794C45.244 21.5465 46.238 21.1347 47.2744 21.1347C48.3109 21.1347 49.3049 21.5465 50.0378 22.2794C50.7707 23.0123 51.1824 24.0063 51.1824 25.0427C51.1824 26.0792 50.7707 27.0732 50.0378 27.8061L44.8696 32.9743L44.873 32.9778Z" fill="#B5874E"/>
<path d="M41.3879 29.4968L45.9604 24.9244C46.6413 24.2379 47.5526 23.8282 48.5181 23.7746C49.4835 23.7209 50.4346 24.0271 51.1874 24.634C51.2513 25.2135 51.1836 25.7999 50.9893 26.3496C50.795 26.8993 50.4791 27.398 50.0652 27.8086L44.8726 32.9765L41.3879 29.4968Z" fill="#D9AA11"/>
<path d="M13.7811 42.909V37.5736C13.7628 32.8556 15.6192 28.3234 18.942 24.9739C22.2647 21.6244 26.7818 19.7317 31.4999 19.7122C36.2179 19.7317 40.735 21.6244 44.0578 24.9739C47.3806 28.3234 49.237 32.8556 49.2186 37.5736V42.909C49.2186 51.8372 40.3593 59.604 31.4999 59.4908C22.6405 59.3776 13.7811 53.1563 13.7811 42.909Z" fill="#B5874E"/>
<path d="M48.0769 31.249C48.8348 33.2714 49.2216 35.4139 49.2188 37.5736" stroke="#393C54" stroke-width="2" stroke-linecap="round" stroke-linejoin="round"/>
<path d="M31.5 19.7122C35.1092 19.718 38.6307 20.8259 41.5931 22.8876C44.5555 24.9493 46.8177 27.8666 48.0769 31.249" stroke="#7F3838" stroke-width="6" stroke-miterlimit="10" stroke-linecap="round"/>
<path d="M14.9231 31.249C14.1652 33.2714 13.7784 35.4139 13.7813 37.5736" stroke="#393C54" stroke-width="2" stroke-linecap="round" stroke-linejoin="round"/>
<path d="M31.5 19.7122C27.8907 19.718 24.3693 20.8259 21.4069 22.8876C18.4445 24.9493 16.1823 27.8666 14.9231 31.249" stroke="#7F3838" stroke-width="6" stroke-miterlimit="10" stroke-linecap="round"/>
<path opacity="0.3" d="M31.5 19.7122C27.8907 19.718 24.3693 20.8259 21.4069 22.8876C18.4445 24.9493 16.1823 27.8666 14.9231 31.249M31.5 19.7122C35.1092 19.718 38.6306 20.8259 41.593 22.8876C44.5555 24.9493 46.8176 27.8666 48.0768 31.249L31.5 19.7122Z" stroke="#515570" stroke-width="6" stroke-linecap="round" stroke-linejoin="round"/>
<path opacity="0.3" d="M23.4626 38.4497C23.4626 34.02 27.0605 26.9276 31.5001 26.9276C35.9396 26.9276 39.5375 34.0053 39.5375 38.4497C39.5375 42.8942 35.9298 44.5184 31.5001 44.5184C27.0704 44.5184 23.4626 42.8893 23.4626 38.4497Z" fill="white"/>
<path d="M37.3767 34.4532C37.3767 36.2201 34.7435 37.111 31.5 37.111C28.2565 37.111 25.6233 36.23 25.6233 34.4532C25.6233 33.4294 37.3767 33.2965 37.3767 34.4532Z" fill="#393C54"/>
<path d="M30.0234 42.1656C30.0234 42.1656 33.075 42.4856 34.8616 40.8269M31.5 37.1207V41.7178V37.1207Z" stroke="#393C54" stroke-width="2" stroke-linecap="round" stroke-linejoin="round"/>
<path d="M24.1172 31.249C24.1219 31.5627 24.0104 31.8669 23.8041 32.1032C23.5978 32.3395 23.3114 32.4911 23 32.5287C22.6886 32.4911 22.4021 32.3395 22.1958 32.1032C21.9896 31.8669 21.878 31.5627 21.8827 31.249M41.1026 31.249C41.1238 31.4082 41.1107 31.57 41.0643 31.7237C41.0178 31.8774 40.9391 32.0194 40.8333 32.1402C40.7275 32.261 40.5971 32.3578 40.4509 32.4241C40.3046 32.4905 40.1459 32.5248 39.9854 32.5248C39.8248 32.5248 39.6661 32.4905 39.5199 32.4241C39.3736 32.3578 39.2432 32.261 39.1375 32.1402C39.0317 32.0194 38.9529 31.8774 38.9065 31.7237C38.86 31.57 38.8469 31.4082 38.8681 31.249H41.1026Z" stroke="#515570" stroke-width="1.64" stroke-linecap="round" stroke-linejoin="round"/>
<path opacity="0.3" d="M43.0024 30.7666C43.0024 29.8776 42.6493 29.0251 42.0207 28.3965C41.3921 27.7679 40.5396 27.4148 39.6506 27.4148M19.9976 30.7666C19.9976 29.8776 20.3507 29.0251 20.9793 28.3965C21.6079 27.7679 22.4604 27.4148 23.3494 27.4148L19.9976 30.7666Z" stroke="#515570" stroke-width="2" stroke-linecap="round" stroke-linejoin="round"/>
<path d="M40.8959 14.5195C37.6741 14.0092 34.41 13.8163 31.1506 13.9436C27.8911 13.8163 24.627 14.0092 21.4053 14.5195C20.8831 14.5195 20.3824 14.7269 20.0132 15.0961C19.6439 15.4653 19.4365 15.9661 19.4365 16.4882V22.1484C19.4365 22.6705 19.6439 23.1713 20.0132 23.5405C20.3824 23.9097 20.8831 24.1172 21.4053 24.1172C22.429 24.0286 23.4528 23.9597 24.4765 23.9104C24.7457 24.0446 25.042 24.1153 25.3428 24.1172C27.2787 23.9498 29.2146 23.8448 31.1506 23.8022C33.0898 23.8415 35.0257 23.9465 36.9584 24.1172C37.2591 24.1153 37.5555 24.0446 37.8246 23.9104C38.8484 23.9597 39.8721 24.0286 40.8959 24.1172C41.418 24.1172 41.9188 23.9097 42.288 23.5405C42.6572 23.1713 42.8646 22.6705 42.8646 22.1484V16.4882C42.8646 15.9661 42.6572 15.4653 42.288 15.0961C41.9188 14.7269 41.418 14.5195 40.8959 14.5195Z" fill="#7F3838"/>
<path opacity="0.7" d="M40.8959 14.5195C37.6741 14.0092 34.41 13.8163 31.1506 13.9436C27.8911 13.8163 24.627 14.0092 21.4053 14.5195C20.8831 14.5195 20.3824 14.7269 20.0132 15.0961C19.6439 15.4653 19.4365 15.9661 19.4365 16.4882V22.1484C19.4365 22.6705 19.6439 23.1713 20.0132 23.5405C20.3824 23.9097 20.8831 24.1172 21.4053 24.1172C22.429 24.0286 23.4528 23.9597 24.4765 23.9104C24.7457 24.0446 25.042 24.1153 25.3428 24.1172C27.2787 23.9498 29.2146 23.8448 31.1506 23.8022C33.0898 23.8415 35.0257 23.9465 36.9584 24.1172C37.2591 24.1153 37.5555 24.0446 37.8246 23.9104C38.8484 23.9597 39.8721 24.0286 40.8959 24.1172C41.418 24.1172 41.9188 23.9097 42.288 23.5405C42.6572 23.1713 42.8646 22.6705 42.8646 22.1484V16.4882C42.8646 15.9661 42.6572 15.4653 42.288 15.0961C41.9188 14.7269 41.418 14.5195 40.8959 14.5195Z" fill="#515570"/>
<path d="M38.9271 12.5508C33.7754 11.7288 28.5258 11.7288 23.374 12.5508C22.8519 12.5508 22.3511 12.7582 21.9819 13.1274C21.6127 13.4967 21.4053 13.9974 21.4053 14.5196V20.1797C21.4053 20.7019 21.6127 21.2026 21.9819 21.5718C22.3511 21.941 22.8519 22.1485 23.374 22.1485C28.5487 21.7006 33.7524 21.7006 38.9271 22.1485C39.4493 22.1485 39.9501 21.941 40.3193 21.5718C40.6885 21.2026 40.8959 20.7019 40.8959 20.1797V14.5196C40.8959 13.9974 40.6885 13.4967 40.3193 13.1274C39.9501 12.7582 39.4493 12.5508 38.9271 12.5508Z" fill="#7F3838"/>
<path d="M38.9271 12.5508C33.7754 11.7288 28.5258 11.7288 23.374 12.5508C22.8519 12.5508 22.3511 12.7582 21.9819 13.1274C21.6127 13.4967 21.4053 13.9974 21.4053 14.5196V20.1797C21.4053 20.7019 21.6127 21.2026 21.9819 21.5718C22.3511 21.941 22.8519 22.1485 23.374 22.1485C28.5487 21.7006 33.7524 21.7006 38.9271 22.1485C39.4493 22.1485 39.9501 21.941 40.3193 21.5718C40.6885 21.2026 40.8959 20.7019 40.8959 20.1797V14.5196C40.8959 13.9974 40.6885 13.4967 40.3193 13.1274C39.9501 12.7582 39.4493 12.5508 38.9271 12.5508Z" fill="#7F3838"/>
<path opacity="0.3" d="M38.9271 12.5508C33.7754 11.7288 28.5258 11.7288 23.374 12.5508C22.8519 12.5508 22.3511 12.7582 21.9819 13.1274C21.6127 13.4967 21.4053 13.9974 21.4053 14.5196V20.1797C21.4053 20.7019 21.6127 21.2026 21.9819 21.5718C22.3511 21.941 22.8519 22.1485 23.374 22.1485C28.5487 21.7006 33.7524 21.7006 38.9271 22.1485C39.4493 22.1485 39.9501 21.941 40.3193 21.5718C40.6885 21.2026 40.8959 20.7019 40.8959 20.1797V14.5196C40.8959 13.9974 40.6885 13.4967 40.3193 13.1274C39.9501 12.7582 39.4493 12.5508 38.9271 12.5508Z" fill="#515570"/>
<path d="M38.9271 15.0117C33.7754 14.1898 28.5258 14.1898 23.374 15.0117C22.8519 15.0117 22.3511 15.2192 21.9819 15.5884C21.6127 15.9576 21.4053 16.4584 21.4053 16.9805V22.6407C21.4053 23.1628 21.6127 23.6636 21.9819 24.0328C22.3511 24.402 22.8519 24.6094 23.374 24.6094C28.5487 24.1615 33.7524 24.1615 38.9271 24.6094C39.4493 24.6094 39.9501 24.402 40.3193 24.0328C40.6885 23.6636 40.8959 23.1628 40.8959 22.6407V16.9805C40.8959 16.4584 40.6885 15.9576 40.3193 15.5884C39.9501 15.2192 39.4493 15.0117 38.9271 15.0117Z" fill="white"/>
<path d="M38.9271 15.0117C33.7754 14.1898 28.5258 14.1898 23.374 15.0117C22.8519 15.0117 22.3511 15.2192 21.9819 15.5884C21.6127 15.9576 21.4053 16.4584 21.4053 16.9805V22.6407C21.4053 23.1628 21.6127 23.6636 21.9819 24.0328C22.3511 24.402 22.8519 24.6094 23.374 24.6094C28.5487 24.1615 33.7524 24.1615 38.9271 24.6094C39.4493 24.6094 39.9501 24.402 40.3193 24.0328C40.6885 23.6636 40.8959 23.1628 40.8959 22.6407V16.9805C40.8959 16.4584 40.6885 15.9576 40.3193 15.5884C39.9501 15.2192 39.4493 15.0117 38.9271 15.0117Z" fill="white"/>
<path opacity="0.2" d="M39.8917 15.2578V21.1641C39.8917 21.6862 39.6843 22.187 39.3151 22.5562C38.9459 22.9254 38.4451 23.1328 37.923 23.1328C32.7483 22.6849 27.5446 22.6849 22.3699 23.1328C22.0243 23.1353 21.6844 23.0453 21.3855 22.872C21.4424 23.353 21.6747 23.7963 22.0379 24.1168C22.4012 24.4374 22.8698 24.6127 23.3542 24.6094C28.5289 24.1615 33.7327 24.1615 38.9074 24.6094C39.4295 24.6094 39.9303 24.402 40.2995 24.0327C40.6687 23.6635 40.8761 23.1628 40.8761 22.6406V16.9805C40.8792 16.6319 40.7898 16.2887 40.6168 15.9861C40.4439 15.6834 40.1936 15.4321 39.8917 15.2578Z" fill="#393C54"/>
<path d="M31.2538 20.8392L32.7894 21.6563C32.8303 21.6784 32.8765 21.6885 32.9228 21.6855C32.9692 21.6824 33.0137 21.6663 33.0513 21.6391C33.0889 21.6118 33.1179 21.5744 33.1352 21.5313C33.1524 21.4882 33.1571 21.4411 33.1487 21.3954L32.8534 19.6875L34.0937 18.4767C34.1261 18.4449 34.1491 18.4046 34.1601 18.3605C34.171 18.3164 34.1695 18.2701 34.1557 18.2268C34.142 18.1834 34.1165 18.1448 34.0821 18.115C34.0477 18.0853 34.0057 18.0657 33.9608 18.0584L32.2431 17.8074L31.4999 16.2422C31.4798 16.2006 31.4483 16.1655 31.4091 16.141C31.3699 16.1164 31.3247 16.1034 31.2784 16.1034C31.2322 16.1034 31.1869 16.1164 31.1477 16.141C31.1086 16.1655 31.0771 16.2006 31.0569 16.2422L30.2891 17.7975L28.5468 18.0485C28.5019 18.0559 28.4599 18.0755 28.4255 18.1052C28.3911 18.1349 28.3656 18.1736 28.3519 18.2169C28.3381 18.2603 28.3366 18.3065 28.3476 18.3507C28.3585 18.3948 28.3815 18.435 28.4139 18.4669L29.6542 19.6875L29.3589 21.4003C29.3505 21.446 29.3552 21.4931 29.3724 21.5362C29.3897 21.5793 29.4188 21.6167 29.4563 21.644C29.4939 21.6713 29.5384 21.6874 29.5848 21.6904C29.6311 21.6935 29.6774 21.6833 29.7182 21.6612L31.2538 20.8392Z" fill="#F5A760"/>
<path opacity="0.5" d="M19.7908 46.3591C19.6192 46.8457 19.6299 47.3779 19.821 47.8572C20.012 48.3364 20.3704 48.7301 20.8297 48.9651C21.2889 49.2002 21.8179 49.2606 22.3183 49.1353C22.8188 49.01 23.2568 48.7073 23.5511 48.2836C23.4972 48.7979 23.6321 49.3143 23.9307 49.7364C24.2294 50.1586 24.6713 50.4578 25.1742 50.5783C25.6771 50.6987 26.2067 50.6322 26.6642 50.3912C27.1217 50.1501 27.4759 49.7509 27.6608 49.268M31.6722 54.4802C31.8943 54.946 32.2779 55.3154 32.7518 55.5198C33.2257 55.7242 33.7576 55.7496 34.2488 55.5915C34.7401 55.4334 35.1573 55.1024 35.4229 54.6599C35.6886 54.2175 35.7847 53.6937 35.6933 53.1858C36.0209 53.5837 36.4816 53.8494 36.9901 53.9337C37.4985 54.018 38.0203 53.9152 38.4588 53.6443C38.8973 53.3734 39.2227 52.9528 39.3749 52.4604C39.527 51.9679 39.4956 51.437 39.2863 50.966C39.6995 51.2653 40.2064 51.4064 40.7149 51.3637C41.2233 51.3209 41.6995 51.0972 42.057 50.7332C42.4145 50.3692 42.6295 49.8889 42.663 49.3798C42.6965 48.8707 42.5462 48.3665 42.2394 47.9587L31.6722 54.4802Z" stroke="#A16825" stroke-width="2" stroke-linecap="round" stroke-linejoin="round"/>
</svg>
