<svg width="25" height="25" viewBox="0 0 37 37" fill="none" xmlns="http://www.w3.org/2000/svg">
<path d="M20.8125 18.5C20.8125 19.7791 19.7791 20.8125 18.5 20.8125C17.2209 20.8125 16.1875 19.7791 16.1875 18.5C16.1875 17.2209 17.2209 16.1875 18.5 16.1875C19.7791 16.1875 20.8125 17.2209 20.8125 18.5ZM0 18.5C0 8.28164 8.28164 0 18.5 0C28.7184 0 37 8.28164 37 18.5C37 28.7184 28.7184 37 18.5 37C8.28164 37 0 28.7184 0 18.5ZM23.4936 22.1639L27.5043 11.7359C28.0463 10.2689 26.666 8.95371 25.2641 9.4957L14.8361 13.5064C14.2219 13.7377 13.7377 14.2219 13.5064 14.8361L9.4957 25.2641C8.95371 26.666 10.2689 28.0463 11.7359 27.5043L22.1639 23.4936C22.7781 23.2623 23.2623 22.7781 23.4936 22.1639Z" fill="#55E452"/>
</svg>
