<svg width="60" height="60" viewBox="0 0 60 60" fill="none" xmlns="http://www.w3.org/2000/svg">
<g clip-path="url(#clip0_166_15)" filter="url(#filter0_d_166_15)">
<path d="M15.9699 56.52C10.4214 53.5842 5.93392 48.9813 3.13989 43.36L12.7599 40.71L15.9699 56.52ZM49.4199 47.75L39.7699 50.39L38.7899 45.56L17.9599 51.24L15.6599 39.92L29.2799 36.17C30.7307 38.3249 32.3207 40.3826 34.0399 42.33C36.5913 39.479 38.8275 36.3609 40.7099 33.03L46.1399 31.54L49.4199 47.75Z" fill="#00A651"/>
<path d="M59.9099 27.7C59.8699 27.24 59.8199 26.78 59.7699 26.32L59.7399 26.09C59.6799 25.64 59.6099 25.2 59.5299 24.77V24.75L42.3699 29.47C43.0993 27.852 43.4971 26.1042 43.5399 24.33L43.5099 24.38C43.5199 24.2 43.5399 24.02 43.5399 23.83C43.5399 21.3104 42.539 18.8941 40.7574 17.1125C38.9758 15.3309 36.5595 14.33 34.0399 14.33C31.5204 14.33 29.104 15.3309 27.3224 17.1125C25.5408 18.8941 24.5399 21.3104 24.5399 23.83C24.5399 24.02 24.5599 24.2 24.5699 24.38L24.5399 24.33C24.5399 24.33 24.3099 27.61 27.6499 33.52L22.6099 34.9L15.7399 3.59998C14.8122 4.1069 13.911 4.66096 13.0399 5.25998C7.501 9.05576 3.3958 14.6002 1.38151 21.0057C-0.632782 27.4112 -0.439676 34.3073 1.92991 40.59C1.94991 40.63 1.95991 40.67 1.97991 40.71C2.12991 41.11 2.28991 41.51 2.45991 41.89C2.50633 42.0178 2.56319 42.1415 2.62991 42.26C2.76991 42.61 2.93991 42.95 3.10991 43.29C3.11991 43.31 3.12991 43.34 3.13991 43.36L12.7599 40.71L15.9699 56.52C17.0631 57.0939 18.1883 57.6047 19.3399 58.05L18.5499 54.18L36.4799 49.29L38.4099 58.79C38.4272 58.7915 38.4446 58.7881 38.4599 58.78L38.5799 58.75C39.0099 58.62 39.4399 58.48 39.8599 58.33C40.2799 58.19 40.6999 58.03 41.1199 57.86L41.2699 57.8L40.3699 53.34L50.0199 50.7L50.2999 52.08C50.5199 51.88 50.7499 51.67 50.9599 51.45C51.0799 51.34 51.1899 51.23 51.2999 51.11C51.6099 50.8 51.9099 50.49 52.1999 50.17L52.8299 49.45L49.0399 30.74L59.9099 27.75V27.7ZM49.4199 47.75L39.7699 50.39L38.7899 45.56L17.9599 51.24L15.6599 39.92L29.2799 36.17C30.7307 38.3248 32.3208 40.3825 34.0399 42.33C36.5913 39.4789 38.8276 36.3609 40.7099 33.03L46.1399 31.54L49.4199 47.75Z" fill="#69B4ED"/>
<path d="M60 30C60.0088 37.1314 57.4655 44.0306 52.8301 49.45L49.0401 30.74L59.91 27.75C59.9701 28.49 60 29.24 60 30ZM50.3 52.08C47.6587 54.5144 44.5997 56.4521 41.2701 57.8L40.37 53.34L50.0201 50.7L50.3 52.08ZM38.41 58.79C35.6795 59.5959 32.847 60.0034 30 60C26.3577 60.0041 22.7451 59.3433 19.34 58.05L18.55 54.18L36.48 49.29L38.41 58.79Z" fill="#00A651"/>
<path d="M42.37 29.47C43.0993 27.852 43.4972 26.1043 43.54 24.33L43.51 24.38C43.52 24.2 43.54 24.02 43.54 23.83C43.54 21.3104 42.5391 18.8941 40.7575 17.1125C38.9759 15.3309 36.5595 14.33 34.04 14.33C31.5204 14.33 29.1041 15.3309 27.3225 17.1125C25.5409 18.8941 24.54 21.3104 24.54 23.83C24.54 24.02 24.56 24.2 24.57 24.38L24.54 24.33C24.54 24.33 24.31 27.61 27.65 33.52L22.61 34.9L15.74 3.59999C19.9173 1.34536 24.57 0.114094 29.3157 0.00734443C34.0614 -0.099405 38.7647 0.921414 43.0392 2.98592C47.3136 5.05043 51.0372 8.0997 53.904 11.8832C56.7708 15.6667 58.6989 20.0764 59.53 24.75L42.37 29.47Z" fill="#EFF1F4"/>
<path d="M22.95 36.44L20.02 37.09L19.71 35.7L13.04 5.25998C13.9111 4.66096 14.8123 4.1069 15.74 3.59998L22.61 34.9L22.95 36.44Z" fill="#F5A760"/>
<path d="M49.92 7.57603C48.9926 6.75102 48.0151 5.98422 46.993 5.28003L41.273 6.85303L36.233 8.23303L33.333 9.03303L17.866 13.287L18.508 16.213L42.904 9.50303L49.92 7.57603ZM56.588 16.1L42.693 19.922C43.1081 20.8355 43.3748 21.8095 43.483 22.807L57.848 18.856C57.475 17.9166 57.0544 16.9967 56.588 16.1Z" fill="#E5E7EA"/>
<path d="M34.395 8.90198L34.705 10.292L37.635 9.64198L37.295 8.10198L35.634 0.53198C34.5867 0.333481 33.5295 0.190945 32.467 0.10498L34.395 8.90198Z" fill="#E5E7EA"/>
<path d="M19.3401 58.0501C18.1884 57.6048 17.0633 57.094 15.9701 56.5201L12.7601 40.7101L12.5701 39.7801L15.5101 39.1801L15.6601 39.9201L17.9601 51.2401L18.5501 54.1801L19.3401 58.0501Z" fill="#009F4E"/>
<path d="M41.2699 57.8L41.1199 57.86C40.6999 58.03 40.2799 58.19 39.8599 58.33C39.4399 58.48 39.0099 58.62 38.5799 58.75L38.4599 58.78C38.4399 58.79 38.4299 58.8 38.4099 58.8V58.79L36.4799 49.29L18.5499 54.18L17.1999 54.55L16.4099 51.66L17.9599 51.24L38.7899 45.56L39.7699 50.39L40.3699 53.34L41.2699 57.8ZM52.8299 49.45L52.1999 50.17C51.9099 50.49 51.6099 50.8 51.2999 51.11C51.1899 51.23 51.0799 51.34 50.9599 51.45C50.7499 51.67 50.5199 51.88 50.2999 52.08L50.0199 50.7L49.4199 47.75L46.1399 31.54L46.0199 30.94L48.9599 30.34L49.0399 30.74L52.8299 49.45Z" fill="#009F4E"/>
<path d="M51.5701 50.28L50.0201 50.7L40.3701 53.34L38.6601 53.8L37.8701 50.91L39.7701 50.39L49.4201 47.75L50.7801 47.38L51.5701 50.28Z" fill="#009F4E"/>
<path d="M59.9099 27.7V27.75L49.0399 30.74L46.1399 31.54L40.7099 33.03L29.2799 36.17L15.6599 39.92L12.7599 40.71L3.13993 43.36C3.12993 43.34 3.11993 43.31 3.10993 43.29C2.93993 42.95 2.76993 42.61 2.62993 42.26C2.56321 42.1415 2.50635 42.0178 2.45993 41.89C2.28993 41.51 2.12993 41.11 1.97993 40.71C1.95993 40.67 1.94993 40.63 1.92993 40.59L19.7099 35.7L22.6099 34.9L27.6499 33.52L42.3699 29.47L59.5299 24.75V24.77C59.6099 25.2 59.6799 25.64 59.7399 26.09L59.7699 26.32C59.8199 26.78 59.8699 27.24 59.9099 27.7Z" fill="#F5A760"/>
<path opacity="0.15" d="M43.9299 37.779C43.1493 38.2936 42.3421 38.767 41.5119 39.197C39.1713 40.3799 36.7236 41.3379 34.2019 42.058C34.4085 40.3044 34.7177 38.5644 35.1279 36.847C35.3149 36.09 35.5069 35.396 35.7039 34.756C37.1159 30.199 38.7889 28.423 38.7889 28.423L38.7769 28.462C38.8589 28.356 38.9369 28.247 39.0289 28.139C41.5489 25.164 45.4019 24.29 47.6419 26.187C49.8819 28.084 49.6559 32.029 47.1359 35.005C47.0449 35.112 46.9499 35.207 46.8589 35.305L46.8959 35.288C46.0395 36.2643 45.039 37.104 43.9289 37.778L43.9299 37.779Z" fill="#070707"/>
<path d="M42.37 29.47C41.8936 30.691 41.3391 31.8801 40.71 33.03C38.8276 36.3608 36.5914 39.4789 34.04 42.33C32.3208 40.3825 30.7308 38.3248 29.28 36.17C28.66 35.23 28.12 34.35 27.65 33.52C24.31 27.61 24.54 24.33 24.54 24.33L24.57 24.38C24.56 24.2 24.54 24.02 24.54 23.83C24.54 21.3104 25.5409 18.894 27.3225 17.1124C29.1041 15.3308 31.5204 14.33 34.04 14.33C36.5595 14.33 38.9759 15.3308 40.7575 17.1124C42.5391 18.894 43.54 21.3104 43.54 23.83C43.54 24.02 43.52 24.2 43.51 24.38L43.54 24.33C43.4972 26.1042 43.0993 27.8519 42.37 29.47Z" fill="#F5A760"/>
<path d="M34.043 29.0231C36.541 29.0231 38.566 26.998 38.566 24.5001C38.566 22.0021 36.541 19.9771 34.043 19.9771C31.545 19.9771 29.52 22.0021 29.52 24.5001C29.52 26.998 31.545 29.0231 34.043 29.0231Z" fill="#F5DE5D"/>
<path d="M34.0429 27.332C35.607 27.332 36.8749 26.064 36.8749 24.5C36.8749 22.9359 35.607 21.668 34.0429 21.668C32.4789 21.668 31.2109 22.9359 31.2109 24.5C31.2109 26.064 32.4789 27.332 34.0429 27.332Z" fill="white"/>
</g>
<defs>
<filter id="filter0_d_166_15" x="0" y="0" width="60" height="60" filterUnits="userSpaceOnUse" color-interpolation-filters="sRGB">
<feFlood flood-opacity="0" result="BackgroundImageFix"/>
<feColorMatrix in="SourceAlpha" type="matrix" values="0 0 0 0 0 0 0 0 0 0 0 0 0 0 0 0 0 0 127 0" result="hardAlpha"/>
<feOffset/>
<feComposite in2="hardAlpha" operator="out"/>
<feColorMatrix type="matrix" values="0 0 0 0 0 0 0 0 0 0 0 0 0 0 0 0 0 0 0.25 0"/>
<feBlend mode="normal" in2="BackgroundImageFix" result="effect1_dropShadow_166_15"/>
<feBlend mode="normal" in="SourceGraphic" in2="effect1_dropShadow_166_15" result="shape"/>
</filter>
<clipPath id="clip0_166_15">
<rect width="60" height="60" fill="white"/>
</clipPath>
</defs>
</svg>
