<svg width="25" height="25" viewBox="0 0 37 37" fill="none" xmlns="http://www.w3.org/2000/svg">
<path d="M0 18.5C0 8.28164 8.28164 0 18.5 0C28.7184 0 37 8.28164 37 18.5C37 28.7184 28.7184 37 18.5 37C8.28164 37 0 28.7184 0 18.5ZM12.6465 15.0385L16.0502 18.435L12.6465 21.8965C11.9744 22.5758 11.9744 23.6742 12.6465 24.2885C13.3258 25.0256 14.4242 25.0256 15.0385 24.2885L18.435 20.9498L21.8965 24.2885C22.5758 25.0256 23.6742 25.0256 24.2885 24.2885C25.0256 23.6742 25.0256 22.5758 24.2885 21.8965L20.9498 18.435L24.2885 15.0385C25.0256 14.4242 25.0256 13.3258 24.2885 12.6465C23.6742 11.9744 22.5758 11.9744 21.8965 12.6465L18.435 16.0502L15.0385 12.6465C14.4242 11.9744 13.3258 11.9744 12.6465 12.6465C11.9744 13.3258 11.9744 14.4242 12.6465 15.0385Z" fill="#F27707"/>
</svg>
