<svg width="63" height="63" viewBox="0 0 63 63" fill="none" xmlns="http://www.w3.org/2000/svg">
<g clip-path="url(#clip0_17_5)">
<path d="M31.289 27.3539C21.6755 27.3539 8.14245 42.2622 8.14245 51.6785C8.03586 55.9189 11.2747 58.4583 16.73 58.4583C22.6408 58.4583 26.5531 55.4086 31.289 55.4086C36.0733 55.4086 39.9977 58.4583 45.8479 58.4583C51.1894 58.4583 54.5372 55.9214 54.5372 51.6846C54.4355 42.2743 40.9061 27.3539 31.289 27.3539ZM13.4597 25.823C12.2037 21.6166 8.31202 18.8828 4.78493 19.7333C1.25784 20.5839 -0.578861 24.6809 0.677664 28.8848C1.9337 33.1009 5.82537 35.8347 9.35246 34.9842C12.8796 34.1337 14.7073 30.027 13.4597 25.823ZM23.7188 23.2958C27.4579 22.3086 29.3353 17.33 27.8975 11.9512C26.4598 6.5723 22.2653 3.31242 18.5117 4.19087C14.7727 5.17807 12.8953 10.1566 14.333 15.5355C15.7732 20.805 19.964 24.2921 23.7188 23.2958ZM57.8027 19.7358C54.2756 18.9946 50.3839 21.6191 49.1279 25.8254C47.8719 30.033 49.7032 34.1325 53.2303 34.983C56.7574 35.7242 60.6333 33.0997 61.9051 28.8933C63.1563 24.6809 61.2184 20.5863 57.8027 19.7358ZM38.8591 23.2958C42.5049 24.283 46.8072 20.805 48.2449 15.5355C49.6826 10.2659 47.8058 5.17747 44.0662 4.19087C40.4204 3.20367 36.1181 6.68166 34.6804 11.9512C33.239 17.2207 35.1164 22.3116 38.8591 23.2958Z" fill="#A26825"/>
</g>
<defs>
<clipPath id="clip0_17_5">
<rect width="62.0148" height="62.2088" fill="white" transform="translate(0.281555 0.137573)"/>
</clipPath>
</defs>
</svg>
