<svg width="47" height="47" viewBox="0 0 47 47" fill="none" xmlns="http://www.w3.org/2000/svg">
<path d="M23.5 0C10.5199 0 0 10.5199 0 23.5C0 36.4801 10.5199 47 23.5 47C36.4801 47 47 36.4801 47 23.5C47 10.5199 36.4801 0 23.5 0ZM23.5 36.7188C21.8477 36.7188 20.5625 35.4336 20.5625 33.7812C20.5625 32.1289 21.765 30.8438 23.5 30.8438C25.0697 30.8438 26.4375 32.1289 26.4375 33.7812C26.4375 35.4336 25.0697 36.7188 23.5 36.7188ZM29.8432 23.6836L25.7031 26.2539V26.4375C25.7031 27.6309 24.6934 28.6406 23.5 28.6406C22.3066 28.6406 21.2969 27.6309 21.2969 26.4375V24.9688C21.2969 24.2344 21.6641 23.5 22.3984 23.041L27.6309 19.9199C28.2734 19.5527 28.6406 18.9102 28.6406 18.1758C28.6406 17.0742 27.64 16.1562 26.5385 16.1562H21.8477C20.6635 16.1562 19.8281 17.0742 19.8281 18.1758C19.8281 19.3691 18.8184 20.3789 17.625 20.3789C16.4316 20.3789 15.4219 19.3691 15.4219 18.1758C15.4219 14.5957 18.2676 11.75 21.765 11.75H26.4559C30.2012 11.75 33.0469 14.5957 33.0469 18.1758C33.0469 20.3789 31.8535 22.4902 29.8432 23.6836Z" fill="#A16825" fill-opacity="0.69"/>
</svg>
