<svg width="30" height="30" viewBox="0 0 39 39" fill="none" xmlns="http://www.w3.org/2000/svg">
<g clip-path="url(#clip0_18_43)">
<path d="M38.1089 33.7975L28.9912 24.6797C31.0646 21.6016 32.0876 17.7557 31.5399 13.6576C30.606 6.68716 24.8931 1.01464 17.9158 0.131279C7.54193 -1.18139 -1.18127 7.54181 0.131476 17.9157C1.01507 24.896 6.68835 30.6135 13.6596 31.5428C17.7576 32.0904 21.6043 31.0678 24.6817 28.9941L33.7994 38.1119C34.9892 39.3017 36.9187 39.3017 38.1085 38.1119C39.2972 36.9205 39.2972 34.9858 38.1089 33.7975ZM6.02535 15.8438C6.02535 10.4676 10.3991 6.09378 15.7753 6.09378C21.1516 6.09378 25.5253 10.4676 25.5253 15.8438C25.5253 21.22 21.1516 25.5938 15.7753 25.5938C10.3991 25.5938 6.02535 21.2215 6.02535 15.8438Z" fill="#674115"/>
</g>
<defs>
<clipPath id="clip0_18_43">
<rect width="39" height="39" fill="white"/>
</clipPath>
</defs>
</svg>
