<svg width="27" height="31" viewBox="0 0 27 31" fill="none" xmlns="http://www.w3.org/2000/svg">
<path d="M8.14821 1.07107C8.47366 0.414625 9.14263 0 9.87188 0H17.1281C17.8574 0 18.5263 0.414625 18.8518 1.07107L19.2857 1.9375H25.0714C26.1382 1.9375 27 2.80514 27 3.875C27 4.94486 26.1382 5.8125 25.0714 5.8125H1.92857C0.863638 5.8125 0 4.94486 0 3.875C0 2.80514 0.863638 1.9375 1.92857 1.9375H7.71429L8.14821 1.07107ZM1.87433 7.75H25.0714V27.125C25.0714 29.2623 23.3417 31 21.2143 31H5.73147C3.65525 31 1.87433 29.2623 1.87433 27.125V7.75ZM6.69576 12.5938V26.1562C6.69576 26.6891 7.18393 27.125 7.66004 27.125C8.24464 27.125 8.62433 26.6891 8.62433 26.1562V12.5938C8.62433 12.0609 8.24464 11.625 7.66004 11.625C7.18393 11.625 6.69576 12.0609 6.69576 12.5938ZM12.4815 12.5938V26.1562C12.4815 26.6891 12.9696 27.125 13.4458 27.125C14.0304 27.125 14.4643 26.6891 14.4643 26.1562V12.5938C14.4643 12.0609 14.0304 11.625 13.4458 11.625C12.9696 11.625 12.4815 12.0609 12.4815 12.5938ZM18.3214 12.5938V26.1562C18.3214 26.6891 18.7554 27.125 19.2857 27.125C19.8161 27.125 20.25 26.6891 20.25 26.1562V12.5938C20.25 12.0609 19.8161 11.625 19.2857 11.625C18.7554 11.625 18.3214 12.0609 18.3214 12.5938Z" fill="#F27707"/>
</svg>
